solid Battery Pack
   facet normal 1.000000e+000 0.000000e+000 -1.201540e-016
      outer loop
         vertex 6.300000e+001 5.000000e+000 5.775000e+001
         vertex 6.300000e+001 0.000000e+000 5.775000e+001
         vertex 6.300000e+001 5.000000e+000 0.000000e+000
      endloop
   endfacet
   facet normal 1.000000e+000 0.000000e+000 -1.201540e-016
      outer loop
         vertex 6.300000e+001 5.000000e+000 0.000000e+000
         vertex 6.300000e+001 0.000000e+000 5.775000e+001
         vertex 6.300000e+001 0.000000e+000 0.000000e+000
      endloop
   endfacet
   facet normal -1.101412e-016 0.000000e+000 -1.000000e+000
      outer loop
         vertex 1.000000e+001 1.500000e+001 0.000000e+000
         vertex 5.300000e+001 1.500000e+001 0.000000e+000
         vertex 6.300000e+001 5.000000e+000 0.000000e+000
      endloop
   endfacet
   facet normal -1.101412e-016 0.000000e+000 -1.000000e+000
      outer loop
         vertex 6.300000e+001 0.000000e+000 0.000000e+000
         vertex 0.000000e+000 0.000000e+000 0.000000e+000
         vertex 6.300000e+001 5.000000e+000 0.000000e+000
      endloop
   endfacet
   facet normal -1.101412e-016 0.000000e+000 -1.000000e+000
      outer loop
         vertex 6.300000e+001 5.000000e+000 0.000000e+000
         vertex 0.000000e+000 0.000000e+000 0.000000e+000
         vertex 0.000000e+000 5.000000e+000 0.000000e+000
      endloop
   endfacet
   facet normal -1.101412e-016 0.000000e+000 -1.000000e+000
      outer loop
         vertex 6.300000e+001 5.000000e+000 0.000000e+000
         vertex 0.000000e+000 5.000000e+000 0.000000e+000
         vertex 1.000000e+001 1.500000e+001 0.000000e+000
      endloop
   endfacet
   facet normal -1.101412e-016 0.000000e+000 -1.000000e+000
      outer loop
         vertex 1.000000e+001 1.500000e+001 0.000000e+000
         vertex 0.000000e+000 5.000000e+000 0.000000e+000
         vertex 1.519248e-001 6.736482e+000 0.000000e+000
      endloop
   endfacet
   facet normal -1.101412e-016 0.000000e+000 -1.000000e+000
      outer loop
         vertex 1.519248e-001 6.736482e+000 0.000000e+000
         vertex 6.030742e-001 8.420201e+000 0.000000e+000
         vertex 1.000000e+001 1.500000e+001 0.000000e+000
      endloop
   endfacet
   facet normal -1.101412e-016 0.000000e+000 -1.000000e+000
      outer loop
         vertex 1.000000e+001 1.500000e+001 0.000000e+000
         vertex 6.030742e-001 8.420201e+000 0.000000e+000
         vertex 1.339747e+000 1.000000e+001 0.000000e+000
      endloop
   endfacet
   facet normal -1.101412e-016 0.000000e+000 -1.000000e+000
      outer loop
         vertex 1.000000e+001 1.500000e+001 0.000000e+000
         vertex 1.339747e+000 1.000000e+001 0.000000e+000
         vertex 2.339557e+000 1.142788e+001 0.000000e+000
      endloop
   endfacet
   facet normal -1.101412e-016 0.000000e+000 -1.000000e+000
      outer loop
         vertex 2.339557e+000 1.142788e+001 0.000000e+000
         vertex 3.572125e+000 1.266044e+001 0.000000e+000
         vertex 5.000001e+000 1.366025e+001 0.000000e+000
      endloop
   endfacet
   facet normal -1.101412e-016 0.000000e+000 -1.000000e+000
      outer loop
         vertex 5.000001e+000 1.366025e+001 0.000000e+000
         vertex 6.579800e+000 1.439693e+001 0.000000e+000
         vertex 2.339557e+000 1.142788e+001 0.000000e+000
      endloop
   endfacet
   facet normal -1.101412e-016 0.000000e+000 -1.000000e+000
      outer loop
         vertex 2.339557e+000 1.142788e+001 0.000000e+000
         vertex 6.579800e+000 1.439693e+001 0.000000e+000
         vertex 8.263519e+000 1.484808e+001 0.000000e+000
      endloop
   endfacet
   facet normal -1.101412e-016 0.000000e+000 -1.000000e+000
      outer loop
         vertex 2.339557e+000 1.142788e+001 0.000000e+000
         vertex 8.263519e+000 1.484808e+001 0.000000e+000
         vertex 1.000000e+001 1.500000e+001 0.000000e+000
      endloop
   endfacet
   facet normal -1.101412e-016 0.000000e+000 -1.000000e+000
      outer loop
         vertex 5.473648e+001 1.484808e+001 0.000000e+000
         vertex 6.239693e+001 8.420201e+000 0.000000e+000
         vertex 5.300000e+001 1.500000e+001 0.000000e+000
      endloop
   endfacet
   facet normal -1.101412e-016 0.000000e+000 -1.000000e+000
      outer loop
         vertex 5.300000e+001 1.500000e+001 0.000000e+000
         vertex 6.239693e+001 8.420201e+000 0.000000e+000
         vertex 6.284808e+001 6.736482e+000 0.000000e+000
      endloop
   endfacet
   facet normal -1.101412e-016 0.000000e+000 -1.000000e+000
      outer loop
         vertex 5.300000e+001 1.500000e+001 0.000000e+000
         vertex 6.284808e+001 6.736482e+000 0.000000e+000
         vertex 6.300000e+001 5.000000e+000 0.000000e+000
      endloop
   endfacet
   facet normal -1.101412e-016 0.000000e+000 -1.000000e+000
      outer loop
         vertex 5.800000e+001 1.366025e+001 0.000000e+000
         vertex 5.942788e+001 1.266044e+001 0.000000e+000
         vertex 6.066044e+001 1.142788e+001 0.000000e+000
      endloop
   endfacet
   facet normal -1.101412e-016 0.000000e+000 -1.000000e+000
      outer loop
         vertex 5.473648e+001 1.484808e+001 0.000000e+000
         vertex 5.642020e+001 1.439693e+001 0.000000e+000
         vertex 6.239693e+001 8.420201e+000 0.000000e+000
      endloop
   endfacet
   facet normal -1.101412e-016 0.000000e+000 -1.000000e+000
      outer loop
         vertex 6.239693e+001 8.420201e+000 0.000000e+000
         vertex 5.642020e+001 1.439693e+001 0.000000e+000
         vertex 5.800000e+001 1.366025e+001 0.000000e+000
      endloop
   endfacet
   facet normal -1.101412e-016 0.000000e+000 -1.000000e+000
      outer loop
         vertex 6.239693e+001 8.420201e+000 0.000000e+000
         vertex 5.800000e+001 1.366025e+001 0.000000e+000
         vertex 6.166025e+001 1.000000e+001 0.000000e+000
      endloop
   endfacet
   facet normal -1.101412e-016 0.000000e+000 -1.000000e+000
      outer loop
         vertex 6.166025e+001 1.000000e+001 0.000000e+000
         vertex 5.800000e+001 1.366025e+001 0.000000e+000
         vertex 6.066044e+001 1.142788e+001 0.000000e+000
      endloop
   endfacet
   facet normal -1.000000e+000 0.000000e+000 0.000000e+000
      outer loop
         vertex 0.000000e+000 5.000000e+000 0.000000e+000
         vertex 0.000000e+000 0.000000e+000 0.000000e+000
         vertex 0.000000e+000 5.000000e+000 5.775000e+001
      endloop
   endfacet
   facet normal -1.000000e+000 0.000000e+000 0.000000e+000
      outer loop
         vertex 0.000000e+000 5.000000e+000 5.775000e+001
         vertex 0.000000e+000 0.000000e+000 0.000000e+000
         vertex 0.000000e+000 0.000000e+000 5.775000e+001
      endloop
   endfacet
   facet normal 0.000000e+000 0.000000e+000 1.000000e+000
      outer loop
         vertex 0.000000e+000 0.000000e+000 5.775000e+001
         vertex 6.300000e+001 0.000000e+000 5.775000e+001
         vertex 6.300000e+001 5.000000e+000 5.775000e+001
      endloop
   endfacet
   facet normal 0.000000e+000 0.000000e+000 1.000000e+000
      outer loop
         vertex 5.800000e+001 1.366025e+001 5.775000e+001
         vertex 5.642020e+001 1.439693e+001 5.775000e+001
         vertex 5.473648e+001 1.484808e+001 5.775000e+001
      endloop
   endfacet
   facet normal 0.000000e+000 0.000000e+000 1.000000e+000
      outer loop
         vertex 5.300000e+001 1.500000e+001 5.775000e+001
         vertex 1.000000e+001 1.500000e+001 5.775000e+001
         vertex 0.000000e+000 0.000000e+000 5.775000e+001
      endloop
   endfacet
   facet normal 0.000000e+000 0.000000e+000 1.000000e+000
      outer loop
         vertex 0.000000e+000 0.000000e+000 5.775000e+001
         vertex 6.300000e+001 5.000000e+000 5.775000e+001
         vertex 5.300000e+001 1.500000e+001 5.775000e+001
      endloop
   endfacet
   facet normal 0.000000e+000 0.000000e+000 1.000000e+000
      outer loop
         vertex 5.300000e+001 1.500000e+001 5.775000e+001
         vertex 6.300000e+001 5.000000e+000 5.775000e+001
         vertex 6.284808e+001 6.736482e+000 5.775000e+001
      endloop
   endfacet
   facet normal 0.000000e+000 0.000000e+000 1.000000e+000
      outer loop
         vertex 5.300000e+001 1.500000e+001 5.775000e+001
         vertex 6.284808e+001 6.736482e+000 5.775000e+001
         vertex 6.239693e+001 8.420201e+000 5.775000e+001
      endloop
   endfacet
   facet normal 0.000000e+000 0.000000e+000 1.000000e+000
      outer loop
         vertex 6.239693e+001 8.420201e+000 5.775000e+001
         vertex 6.166025e+001 1.000000e+001 5.775000e+001
         vertex 5.300000e+001 1.500000e+001 5.775000e+001
      endloop
   endfacet
   facet normal 0.000000e+000 0.000000e+000 1.000000e+000
      outer loop
         vertex 5.300000e+001 1.500000e+001 5.775000e+001
         vertex 6.166025e+001 1.000000e+001 5.775000e+001
         vertex 6.066044e+001 1.142788e+001 5.775000e+001
      endloop
   endfacet
   facet normal 0.000000e+000 0.000000e+000 1.000000e+000
      outer loop
         vertex 5.300000e+001 1.500000e+001 5.775000e+001
         vertex 6.066044e+001 1.142788e+001 5.775000e+001
         vertex 5.473648e+001 1.484808e+001 5.775000e+001
      endloop
   endfacet
   facet normal 0.000000e+000 0.000000e+000 1.000000e+000
      outer loop
         vertex 5.473648e+001 1.484808e+001 5.775000e+001
         vertex 6.066044e+001 1.142788e+001 5.775000e+001
         vertex 5.942788e+001 1.266044e+001 5.775000e+001
      endloop
   endfacet
   facet normal 0.000000e+000 0.000000e+000 1.000000e+000
      outer loop
         vertex 5.473648e+001 1.484808e+001 5.775000e+001
         vertex 5.942788e+001 1.266044e+001 5.775000e+001
         vertex 5.800000e+001 1.366025e+001 5.775000e+001
      endloop
   endfacet
   facet normal 0.000000e+000 0.000000e+000 1.000000e+000
      outer loop
         vertex 8.263519e+000 1.484808e+001 5.775000e+001
         vertex 6.579800e+000 1.439693e+001 5.775000e+001
         vertex 5.000001e+000 1.366025e+001 5.775000e+001
      endloop
   endfacet
   facet normal 0.000000e+000 0.000000e+000 1.000000e+000
      outer loop
         vertex 6.030742e-001 8.420201e+000 5.775000e+001
         vertex 1.519248e-001 6.736482e+000 5.775000e+001
         vertex 1.000000e+001 1.500000e+001 5.775000e+001
      endloop
   endfacet
   facet normal 0.000000e+000 0.000000e+000 1.000000e+000
      outer loop
         vertex 1.000000e+001 1.500000e+001 5.775000e+001
         vertex 1.519248e-001 6.736482e+000 5.775000e+001
         vertex 0.000000e+000 5.000000e+000 5.775000e+001
      endloop
   endfacet
   facet normal 0.000000e+000 0.000000e+000 1.000000e+000
      outer loop
         vertex 1.000000e+001 1.500000e+001 5.775000e+001
         vertex 0.000000e+000 5.000000e+000 5.775000e+001
         vertex 0.000000e+000 0.000000e+000 5.775000e+001
      endloop
   endfacet
   facet normal 0.000000e+000 0.000000e+000 1.000000e+000
      outer loop
         vertex 5.000001e+000 1.366025e+001 5.775000e+001
         vertex 3.572125e+000 1.266044e+001 5.775000e+001
         vertex 8.263519e+000 1.484808e+001 5.775000e+001
      endloop
   endfacet
   facet normal 0.000000e+000 0.000000e+000 1.000000e+000
      outer loop
         vertex 8.263519e+000 1.484808e+001 5.775000e+001
         vertex 3.572125e+000 1.266044e+001 5.775000e+001
         vertex 2.339557e+000 1.142788e+001 5.775000e+001
      endloop
   endfacet
   facet normal 0.000000e+000 0.000000e+000 1.000000e+000
      outer loop
         vertex 8.263519e+000 1.484808e+001 5.775000e+001
         vertex 2.339557e+000 1.142788e+001 5.775000e+001
         vertex 1.000000e+001 1.500000e+001 5.775000e+001
      endloop
   endfacet
   facet normal 0.000000e+000 0.000000e+000 1.000000e+000
      outer loop
         vertex 1.000000e+001 1.500000e+001 5.775000e+001
         vertex 2.339557e+000 1.142788e+001 5.775000e+001
         vertex 1.339747e+000 1.000000e+001 5.775000e+001
      endloop
   endfacet
   facet normal 0.000000e+000 0.000000e+000 1.000000e+000
      outer loop
         vertex 1.000000e+001 1.500000e+001 5.775000e+001
         vertex 1.339747e+000 1.000000e+001 5.775000e+001
         vertex 6.030742e-001 8.420201e+000 5.775000e+001
      endloop
   endfacet
   facet normal 0.000000e+000 1.000000e+000 0.000000e+000
      outer loop
         vertex 5.300000e+001 1.500000e+001 0.000000e+000
         vertex 1.000000e+001 1.500000e+001 0.000000e+000
         vertex 5.300000e+001 1.500000e+001 5.775000e+001
      endloop
   endfacet
   facet normal 0.000000e+000 1.000000e+000 0.000000e+000
      outer loop
         vertex 5.300000e+001 1.500000e+001 5.775000e+001
         vertex 1.000000e+001 1.500000e+001 0.000000e+000
         vertex 1.000000e+001 1.500000e+001 5.775000e+001
      endloop
   endfacet
   facet normal 0.000000e+000 -1.000000e+000 0.000000e+000
      outer loop
         vertex 0.000000e+000 0.000000e+000 5.775000e+001
         vertex 0.000000e+000 0.000000e+000 0.000000e+000
         vertex 6.300000e+001 0.000000e+000 5.775000e+001
      endloop
   endfacet
   facet normal 0.000000e+000 -1.000000e+000 0.000000e+000
      outer loop
         vertex 6.300000e+001 0.000000e+000 5.775000e+001
         vertex 0.000000e+000 0.000000e+000 0.000000e+000
         vertex 6.300000e+001 0.000000e+000 0.000000e+000
      endloop
   endfacet
   facet normal 5.807913e-002 9.983119e-001 -6.978441e-018
      outer loop
         vertex 5.300000e+001 1.500000e+001 0.000000e+000
         vertex 5.300000e+001 1.500000e+001 5.775000e+001
         vertex 5.473648e+001 1.484808e+001 5.775000e+001
      endloop
   endfacet
   facet normal 1.161583e-001 9.932307e-001 -1.395688e-017
      outer loop
         vertex 5.300000e+001 1.500000e+001 0.000000e+000
         vertex 5.473648e+001 1.484808e+001 5.775000e+001
         vertex 5.473648e+001 1.484808e+001 0.000000e+000
      endloop
   endfacet
   facet normal 2.305519e-001 9.730600e-001 -2.770173e-017
      outer loop
         vertex 5.473648e+001 1.484808e+001 0.000000e+000
         vertex 5.473648e+001 1.484808e+001 5.775000e+001
         vertex 5.642020e+001 1.439693e+001 5.775000e+001
      endloop
   endfacet
   facet normal 2.868663e-001 9.579706e-001 -3.446813e-017
      outer loop
         vertex 5.473648e+001 1.484808e+001 0.000000e+000
         vertex 5.642020e+001 1.439693e+001 5.775000e+001
         vertex 5.642020e+001 1.439693e+001 0.000000e+000
      endloop
   endfacet
   facet normal 3.960194e-001 9.182422e-001 -4.758331e-017
      outer loop
         vertex 5.642020e+001 1.439693e+001 0.000000e+000
         vertex 5.642020e+001 1.439693e+001 5.775000e+001
         vertex 5.800000e+001 1.366025e+001 5.775000e+001
      endloop
   endfacet
   facet normal 4.488580e-001 8.936031e-001 -5.393208e-017
      outer loop
         vertex 5.642020e+001 1.439693e+001 0.000000e+000
         vertex 5.800000e+001 1.366025e+001 5.775000e+001
         vertex 5.800000e+001 1.366025e+001 0.000000e+000
      endloop
   endfacet
   facet normal 5.494540e-001 8.355240e-001 -6.601910e-017
      outer loop
         vertex 5.800000e+001 1.366025e+001 0.000000e+000
         vertex 5.800000e+001 1.366025e+001 5.775000e+001
         vertex 5.942788e+001 1.266044e+001 5.775000e+001
      endloop
   endfacet
   facet normal 5.972114e-001 8.020838e-001 -7.175734e-017
      outer loop
         vertex 5.800000e+001 1.366025e+001 0.000000e+000
         vertex 5.942788e+001 1.266044e+001 5.775000e+001
         vertex 5.942788e+001 1.266044e+001 0.000000e+000
      endloop
   endfacet
   facet normal 6.861938e-001 7.274188e-001 -8.244893e-017
      outer loop
         vertex 5.942788e+001 1.266044e+001 0.000000e+000
         vertex 5.942788e+001 1.266044e+001 5.775000e+001
         vertex 6.066044e+001 1.142788e+001 5.775000e+001
      endloop
   endfacet
   facet normal 7.274188e-001 6.861938e-001 -8.740229e-017
      outer loop
         vertex 5.942788e+001 1.266044e+001 0.000000e+000
         vertex 6.066044e+001 1.142788e+001 5.775000e+001
         vertex 6.066044e+001 1.142788e+001 0.000000e+000
      endloop
   endfacet
   facet normal 8.020838e-001 5.972114e-001 -9.637359e-017
      outer loop
         vertex 6.066044e+001 1.142788e+001 0.000000e+000
         vertex 6.066044e+001 1.142788e+001 5.775000e+001
         vertex 6.166025e+001 1.000000e+001 5.775000e+001
      endloop
   endfacet
   facet normal 8.355240e-001 5.494540e-001 -1.003916e-016
      outer loop
         vertex 6.066044e+001 1.142788e+001 0.000000e+000
         vertex 6.166025e+001 1.000000e+001 5.775000e+001
         vertex 6.166025e+001 1.000000e+001 0.000000e+000
      endloop
   endfacet
   facet normal 8.936031e-001 4.488580e-001 -1.073700e-016
      outer loop
         vertex 6.166025e+001 1.000000e+001 0.000000e+000
         vertex 6.166025e+001 1.000000e+001 5.775000e+001
         vertex 6.239693e+001 8.420201e+000 5.775000e+001
      endloop
   endfacet
   facet normal 9.182422e-001 3.960194e-001 -1.103305e-016
      outer loop
         vertex 6.166025e+001 1.000000e+001 0.000000e+000
         vertex 6.239693e+001 8.420201e+000 5.775000e+001
         vertex 6.239693e+001 8.420201e+000 0.000000e+000
      endloop
   endfacet
   facet normal 9.579706e-001 2.868663e-001 -1.151040e-016
      outer loop
         vertex 6.239693e+001 8.420201e+000 0.000000e+000
         vertex 6.239693e+001 8.420201e+000 5.775000e+001
         vertex 6.284808e+001 6.736482e+000 5.775000e+001
      endloop
   endfacet
   facet normal 9.730600e-001 2.305519e-001 -1.169171e-016
      outer loop
         vertex 6.239693e+001 8.420201e+000 0.000000e+000
         vertex 6.284808e+001 6.736482e+000 5.775000e+001
         vertex 6.284808e+001 6.736482e+000 0.000000e+000
      endloop
   endfacet
   facet normal 9.932307e-001 1.161583e-001 -1.193407e-016
      outer loop
         vertex 6.284808e+001 6.736482e+000 0.000000e+000
         vertex 6.284808e+001 6.736482e+000 5.775000e+001
         vertex 6.300000e+001 5.000000e+000 5.775000e+001
      endloop
   endfacet
   facet normal 9.983119e-001 5.807913e-002 -1.199512e-016
      outer loop
         vertex 6.284808e+001 6.736482e+000 0.000000e+000
         vertex 6.300000e+001 5.000000e+000 5.775000e+001
         vertex 6.300000e+001 5.000000e+000 0.000000e+000
      endloop
   endfacet
   facet normal -5.807913e-002 9.983119e-001 0.000000e+000
      outer loop
         vertex 1.000000e+001 1.500000e+001 5.775000e+001
         vertex 1.000000e+001 1.500000e+001 0.000000e+000
         vertex 8.263519e+000 1.484808e+001 0.000000e+000
      endloop
   endfacet
   facet normal -1.161583e-001 9.932307e-001 0.000000e+000
      outer loop
         vertex 1.000000e+001 1.500000e+001 5.775000e+001
         vertex 8.263519e+000 1.484808e+001 0.000000e+000
         vertex 8.263519e+000 1.484808e+001 5.775000e+001
      endloop
   endfacet
   facet normal -2.305519e-001 9.730600e-001 0.000000e+000
      outer loop
         vertex 8.263519e+000 1.484808e+001 5.775000e+001
         vertex 8.263519e+000 1.484808e+001 0.000000e+000
         vertex 6.579800e+000 1.439693e+001 0.000000e+000
      endloop
   endfacet
   facet normal -2.868663e-001 9.579706e-001 0.000000e+000
      outer loop
         vertex 8.263519e+000 1.484808e+001 5.775000e+001
         vertex 6.579800e+000 1.439693e+001 0.000000e+000
         vertex 6.579800e+000 1.439693e+001 5.775000e+001
      endloop
   endfacet
   facet normal -3.960194e-001 9.182422e-001 0.000000e+000
      outer loop
         vertex 6.579800e+000 1.439693e+001 5.775000e+001
         vertex 6.579800e+000 1.439693e+001 0.000000e+000
         vertex 5.000001e+000 1.366025e+001 0.000000e+000
      endloop
   endfacet
   facet normal -4.488580e-001 8.936031e-001 0.000000e+000
      outer loop
         vertex 6.579800e+000 1.439693e+001 5.775000e+001
         vertex 5.000001e+000 1.366025e+001 0.000000e+000
         vertex 5.000001e+000 1.366025e+001 5.775000e+001
      endloop
   endfacet
   facet normal -5.494540e-001 8.355240e-001 0.000000e+000
      outer loop
         vertex 5.000001e+000 1.366025e+001 5.775000e+001
         vertex 5.000001e+000 1.366025e+001 0.000000e+000
         vertex 3.572125e+000 1.266044e+001 0.000000e+000
      endloop
   endfacet
   facet normal -5.972114e-001 8.020838e-001 0.000000e+000
      outer loop
         vertex 5.000001e+000 1.366025e+001 5.775000e+001
         vertex 3.572125e+000 1.266044e+001 0.000000e+000
         vertex 3.572125e+000 1.266044e+001 5.775000e+001
      endloop
   endfacet
   facet normal -6.861938e-001 7.274188e-001 0.000000e+000
      outer loop
         vertex 3.572125e+000 1.266044e+001 5.775000e+001
         vertex 3.572125e+000 1.266044e+001 0.000000e+000
         vertex 2.339557e+000 1.142788e+001 0.000000e+000
      endloop
   endfacet
   facet normal -7.274188e-001 6.861938e-001 0.000000e+000
      outer loop
         vertex 3.572125e+000 1.266044e+001 5.775000e+001
         vertex 2.339557e+000 1.142788e+001 0.000000e+000
         vertex 2.339557e+000 1.142788e+001 5.775000e+001
      endloop
   endfacet
   facet normal -8.020838e-001 5.972114e-001 0.000000e+000
      outer loop
         vertex 2.339557e+000 1.142788e+001 5.775000e+001
         vertex 2.339557e+000 1.142788e+001 0.000000e+000
         vertex 1.339747e+000 1.000000e+001 0.000000e+000
      endloop
   endfacet
   facet normal -8.355240e-001 5.494540e-001 0.000000e+000
      outer loop
         vertex 2.339557e+000 1.142788e+001 5.775000e+001
         vertex 1.339747e+000 1.000000e+001 0.000000e+000
         vertex 1.339747e+000 1.000000e+001 5.775000e+001
      endloop
   endfacet
   facet normal -8.936031e-001 4.488580e-001 0.000000e+000
      outer loop
         vertex 1.339747e+000 1.000000e+001 5.775000e+001
         vertex 1.339747e+000 1.000000e+001 0.000000e+000
         vertex 6.030742e-001 8.420201e+000 0.000000e+000
      endloop
   endfacet
   facet normal -9.182422e-001 3.960194e-001 0.000000e+000
      outer loop
         vertex 1.339747e+000 1.000000e+001 5.775000e+001
         vertex 6.030742e-001 8.420201e+000 0.000000e+000
         vertex 6.030742e-001 8.420201e+000 5.775000e+001
      endloop
   endfacet
   facet normal -9.579706e-001 2.868663e-001 0.000000e+000
      outer loop
         vertex 6.030742e-001 8.420201e+000 5.775000e+001
         vertex 6.030742e-001 8.420201e+000 0.000000e+000
         vertex 1.519248e-001 6.736482e+000 0.000000e+000
      endloop
   endfacet
   facet normal -9.730600e-001 2.305519e-001 0.000000e+000
      outer loop
         vertex 6.030742e-001 8.420201e+000 5.775000e+001
         vertex 1.519248e-001 6.736482e+000 0.000000e+000
         vertex 1.519248e-001 6.736482e+000 5.775000e+001
      endloop
   endfacet
   facet normal -9.932307e-001 1.161583e-001 0.000000e+000
      outer loop
         vertex 1.519248e-001 6.736482e+000 5.775000e+001
         vertex 1.519248e-001 6.736482e+000 0.000000e+000
         vertex 0.000000e+000 5.000000e+000 0.000000e+000
      endloop
   endfacet
   facet normal -9.983119e-001 5.807913e-002 0.000000e+000
      outer loop
         vertex 1.519248e-001 6.736482e+000 5.775000e+001
         vertex 0.000000e+000 5.000000e+000 0.000000e+000
         vertex 0.000000e+000 5.000000e+000 5.775000e+001
      endloop
   endfacet
endsolid