solid BreadBoard
   facet normal 1.000000e+000 0.000000e+000 0.000000e+000
      outer loop
         vertex 5.520000e+001 8.250000e+001 9.000000e+000
         vertex 5.520000e+001 0.000000e+000 9.000000e+000
         vertex 5.520000e+001 8.250000e+001 0.000000e+000
      endloop
   endfacet
   facet normal 1.000000e+000 0.000000e+000 0.000000e+000
      outer loop
         vertex 5.520000e+001 8.250000e+001 0.000000e+000
         vertex 5.520000e+001 0.000000e+000 9.000000e+000
         vertex 5.520000e+001 0.000000e+000 0.000000e+000
      endloop
   endfacet
   facet normal 0.000000e+000 1.000000e+000 0.000000e+000
      outer loop
         vertex 0.000000e+000 8.250000e+001 9.000000e+000
         vertex 5.520000e+001 8.250000e+001 9.000000e+000
         vertex 0.000000e+000 8.250000e+001 0.000000e+000
      endloop
   endfacet
   facet normal 0.000000e+000 1.000000e+000 0.000000e+000
      outer loop
         vertex 0.000000e+000 8.250000e+001 0.000000e+000
         vertex 5.520000e+001 8.250000e+001 9.000000e+000
         vertex 5.520000e+001 8.250000e+001 0.000000e+000
      endloop
   endfacet
   facet normal -1.000000e+000 0.000000e+000 0.000000e+000
      outer loop
         vertex 0.000000e+000 0.000000e+000 9.000000e+000
         vertex 0.000000e+000 8.250000e+001 9.000000e+000
         vertex 0.000000e+000 0.000000e+000 0.000000e+000
      endloop
   endfacet
   facet normal -1.000000e+000 0.000000e+000 0.000000e+000
      outer loop
         vertex 0.000000e+000 0.000000e+000 0.000000e+000
         vertex 0.000000e+000 8.250000e+001 9.000000e+000
         vertex 0.000000e+000 8.250000e+001 0.000000e+000
      endloop
   endfacet
   facet normal 0.000000e+000 -1.000000e+000 0.000000e+000
      outer loop
         vertex 5.520000e+001 0.000000e+000 9.000000e+000
         vertex 0.000000e+000 0.000000e+000 9.000000e+000
         vertex 5.520000e+001 0.000000e+000 0.000000e+000
      endloop
   endfacet
   facet normal 0.000000e+000 -1.000000e+000 0.000000e+000
      outer loop
         vertex 5.520000e+001 0.000000e+000 0.000000e+000
         vertex 0.000000e+000 0.000000e+000 9.000000e+000
         vertex 0.000000e+000 0.000000e+000 0.000000e+000
      endloop
   endfacet
   facet normal 0.000000e+000 0.000000e+000 1.000000e+000
      outer loop
         vertex 0.000000e+000 8.250000e+001 9.000000e+000
         vertex 0.000000e+000 0.000000e+000 9.000000e+000
         vertex 5.520000e+001 8.250000e+001 9.000000e+000
      endloop
   endfacet
   facet normal 0.000000e+000 0.000000e+000 1.000000e+000
      outer loop
         vertex 5.520000e+001 8.250000e+001 9.000000e+000
         vertex 0.000000e+000 0.000000e+000 9.000000e+000
         vertex 5.520000e+001 0.000000e+000 9.000000e+000
      endloop
   endfacet
   facet normal 0.000000e+000 0.000000e+000 -1.000000e+000
      outer loop
         vertex 0.000000e+000 0.000000e+000 0.000000e+000
         vertex 0.000000e+000 8.250000e+001 0.000000e+000
         vertex 5.520000e+001 0.000000e+000 0.000000e+000
      endloop
   endfacet
   facet normal 0.000000e+000 0.000000e+000 -1.000000e+000
      outer loop
         vertex 5.520000e+001 0.000000e+000 0.000000e+000
         vertex 0.000000e+000 8.250000e+001 0.000000e+000
         vertex 5.520000e+001 8.250000e+001 0.000000e+000
      endloop
   endfacet
endsolid