solid Key
   facet normal 1.000000e+000 0.000000e+000 -1.387779e-016
      outer loop
         vertex 2.000000e+001 1.875000e+000 5.000000e+001
         vertex 2.000000e+001 0.000000e+000 5.000000e+001
         vertex 2.000000e+001 1.875000e+000 0.000000e+000
      endloop
   endfacet
   facet normal 1.000000e+000 0.000000e+000 -1.387779e-016
      outer loop
         vertex 2.000000e+001 1.875000e+000 0.000000e+000
         vertex 2.000000e+001 0.000000e+000 5.000000e+001
         vertex 2.000000e+001 0.000000e+000 0.000000e+000
      endloop
   endfacet
   facet normal 0.000000e+000 0.000000e+000 -1.000000e+000
      outer loop
         vertex 1.875000e+000 3.750000e+000 0.000000e+000
         vertex 0.000000e+000 1.875000e+000 0.000000e+000
         vertex 2.848543e-002 2.200590e+000 0.000000e+000
      endloop
   endfacet
   facet normal 0.000000e+000 0.000000e+000 -1.000000e+000
      outer loop
         vertex 1.812500e+001 3.750000e+000 0.000000e+000
         vertex 2.000000e+001 0.000000e+000 0.000000e+000
         vertex 1.875000e+000 3.750000e+000 0.000000e+000
      endloop
   endfacet
   facet normal 0.000000e+000 0.000000e+000 -1.000000e+000
      outer loop
         vertex 1.875000e+000 3.750000e+000 0.000000e+000
         vertex 2.000000e+001 0.000000e+000 0.000000e+000
         vertex 0.000000e+000 0.000000e+000 0.000000e+000
      endloop
   endfacet
   facet normal 0.000000e+000 0.000000e+000 -1.000000e+000
      outer loop
         vertex 1.875000e+000 3.750000e+000 0.000000e+000
         vertex 0.000000e+000 0.000000e+000 0.000000e+000
         vertex 0.000000e+000 1.875000e+000 0.000000e+000
      endloop
   endfacet
   facet normal 0.000000e+000 0.000000e+000 -1.000000e+000
      outer loop
         vertex 1.988692e+001 2.516288e+000 0.000000e+000
         vertex 1.997151e+001 2.200590e+000 0.000000e+000
         vertex 1.812500e+001 3.750000e+000 0.000000e+000
      endloop
   endfacet
   facet normal 0.000000e+000 0.000000e+000 -1.000000e+000
      outer loop
         vertex 1.812500e+001 3.750000e+000 0.000000e+000
         vertex 1.997151e+001 2.200590e+000 0.000000e+000
         vertex 2.000000e+001 1.875000e+000 0.000000e+000
      endloop
   endfacet
   facet normal 0.000000e+000 0.000000e+000 -1.000000e+000
      outer loop
         vertex 1.812500e+001 3.750000e+000 0.000000e+000
         vertex 2.000000e+001 1.875000e+000 0.000000e+000
         vertex 2.000000e+001 0.000000e+000 0.000000e+000
      endloop
   endfacet
   facet normal 0.000000e+000 0.000000e+000 -1.000000e+000
      outer loop
         vertex 2.848543e-002 2.200590e+000 0.000000e+000
         vertex 1.130765e-001 2.516288e+000 0.000000e+000
         vertex 2.512019e-001 2.812500e+000 0.000000e+000
      endloop
   endfacet
   facet normal 0.000000e+000 0.000000e+000 -1.000000e+000
      outer loop
         vertex 2.512019e-001 2.812500e+000 0.000000e+000
         vertex 4.386669e-001 3.080227e+000 0.000000e+000
         vertex 2.848543e-002 2.200590e+000 0.000000e+000
      endloop
   endfacet
   facet normal 0.000000e+000 0.000000e+000 -1.000000e+000
      outer loop
         vertex 2.848543e-002 2.200590e+000 0.000000e+000
         vertex 4.386669e-001 3.080227e+000 0.000000e+000
         vertex 6.697727e-001 3.311333e+000 0.000000e+000
      endloop
   endfacet
   facet normal 0.000000e+000 0.000000e+000 -1.000000e+000
      outer loop
         vertex 2.848543e-002 2.200590e+000 0.000000e+000
         vertex 6.697727e-001 3.311333e+000 0.000000e+000
         vertex 9.375001e-001 3.498798e+000 0.000000e+000
      endloop
   endfacet
   facet normal 0.000000e+000 0.000000e+000 -1.000000e+000
      outer loop
         vertex 9.375001e-001 3.498798e+000 0.000000e+000
         vertex 1.233712e+000 3.636924e+000 0.000000e+000
         vertex 2.848543e-002 2.200590e+000 0.000000e+000
      endloop
   endfacet
   facet normal 0.000000e+000 0.000000e+000 -1.000000e+000
      outer loop
         vertex 2.848543e-002 2.200590e+000 0.000000e+000
         vertex 1.233712e+000 3.636924e+000 0.000000e+000
         vertex 1.549410e+000 3.721514e+000 0.000000e+000
      endloop
   endfacet
   facet normal 0.000000e+000 0.000000e+000 -1.000000e+000
      outer loop
         vertex 2.848543e-002 2.200590e+000 0.000000e+000
         vertex 1.549410e+000 3.721514e+000 0.000000e+000
         vertex 1.875000e+000 3.750000e+000 0.000000e+000
      endloop
   endfacet
   facet normal 0.000000e+000 0.000000e+000 -1.000000e+000
      outer loop
         vertex 1.876629e+001 3.636924e+000 0.000000e+000
         vertex 1.906250e+001 3.498798e+000 0.000000e+000
         vertex 1.974880e+001 2.812500e+000 0.000000e+000
      endloop
   endfacet
   facet normal 0.000000e+000 0.000000e+000 -1.000000e+000
      outer loop
         vertex 1.974880e+001 2.812500e+000 0.000000e+000
         vertex 1.906250e+001 3.498798e+000 0.000000e+000
         vertex 1.933022e+001 3.311333e+000 0.000000e+000
      endloop
   endfacet
   facet normal 0.000000e+000 0.000000e+000 -1.000000e+000
      outer loop
         vertex 1.974880e+001 2.812500e+000 0.000000e+000
         vertex 1.933022e+001 3.311333e+000 0.000000e+000
         vertex 1.956133e+001 3.080227e+000 0.000000e+000
      endloop
   endfacet
   facet normal 0.000000e+000 0.000000e+000 -1.000000e+000
      outer loop
         vertex 1.988692e+001 2.516288e+000 0.000000e+000
         vertex 1.812500e+001 3.750000e+000 0.000000e+000
         vertex 1.974880e+001 2.812500e+000 0.000000e+000
      endloop
   endfacet
   facet normal 0.000000e+000 0.000000e+000 -1.000000e+000
      outer loop
         vertex 1.974880e+001 2.812500e+000 0.000000e+000
         vertex 1.812500e+001 3.750000e+000 0.000000e+000
         vertex 1.845059e+001 3.721514e+000 0.000000e+000
      endloop
   endfacet
   facet normal 0.000000e+000 0.000000e+000 -1.000000e+000
      outer loop
         vertex 1.974880e+001 2.812500e+000 0.000000e+000
         vertex 1.845059e+001 3.721514e+000 0.000000e+000
         vertex 1.876629e+001 3.636924e+000 0.000000e+000
      endloop
   endfacet
   facet normal -1.000000e+000 0.000000e+000 1.387779e-016
      outer loop
         vertex 0.000000e+000 1.875000e+000 0.000000e+000
         vertex 0.000000e+000 0.000000e+000 0.000000e+000
         vertex 0.000000e+000 1.875000e+000 5.000000e+001
      endloop
   endfacet
   facet normal -1.000000e+000 0.000000e+000 1.387779e-016
      outer loop
         vertex 0.000000e+000 1.875000e+000 5.000000e+001
         vertex 0.000000e+000 0.000000e+000 0.000000e+000
         vertex 0.000000e+000 0.000000e+000 5.000000e+001
      endloop
   endfacet
   facet normal 0.000000e+000 0.000000e+000 1.000000e+000
      outer loop
         vertex 1.549410e+000 3.721514e+000 5.000000e+001
         vertex 0.000000e+000 1.875000e+000 5.000000e+001
         vertex 1.875000e+000 3.750000e+000 5.000000e+001
      endloop
   endfacet
   facet normal 0.000000e+000 0.000000e+000 1.000000e+000
      outer loop
         vertex 1.875000e+000 3.750000e+000 5.000000e+001
         vertex 0.000000e+000 1.875000e+000 5.000000e+001
         vertex 0.000000e+000 0.000000e+000 5.000000e+001
      endloop
   endfacet
   facet normal 0.000000e+000 0.000000e+000 1.000000e+000
      outer loop
         vertex 1.875000e+000 3.750000e+000 5.000000e+001
         vertex 0.000000e+000 0.000000e+000 5.000000e+001
         vertex 1.812500e+001 3.750000e+000 5.000000e+001
      endloop
   endfacet
   facet normal 0.000000e+000 0.000000e+000 1.000000e+000
      outer loop
         vertex 1.812500e+001 3.750000e+000 5.000000e+001
         vertex 0.000000e+000 0.000000e+000 5.000000e+001
         vertex 2.000000e+001 0.000000e+000 5.000000e+001
      endloop
   endfacet
   facet normal 0.000000e+000 0.000000e+000 1.000000e+000
      outer loop
         vertex 1.812500e+001 3.750000e+000 5.000000e+001
         vertex 2.000000e+001 0.000000e+000 5.000000e+001
         vertex 2.000000e+001 1.875000e+000 5.000000e+001
      endloop
   endfacet
   facet normal 0.000000e+000 0.000000e+000 1.000000e+000
      outer loop
         vertex 2.000000e+001 1.875000e+000 5.000000e+001
         vertex 1.997151e+001 2.200590e+000 5.000000e+001
         vertex 1.812500e+001 3.750000e+000 5.000000e+001
      endloop
   endfacet
   facet normal 0.000000e+000 0.000000e+000 1.000000e+000
      outer loop
         vertex 1.812500e+001 3.750000e+000 5.000000e+001
         vertex 1.997151e+001 2.200590e+000 5.000000e+001
         vertex 1.988692e+001 2.516288e+000 5.000000e+001
      endloop
   endfacet
   facet normal 0.000000e+000 0.000000e+000 1.000000e+000
      outer loop
         vertex 1.812500e+001 3.750000e+000 5.000000e+001
         vertex 1.988692e+001 2.516288e+000 5.000000e+001
         vertex 1.974880e+001 2.812500e+000 5.000000e+001
      endloop
   endfacet
   facet normal 0.000000e+000 0.000000e+000 1.000000e+000
      outer loop
         vertex 1.906250e+001 3.498798e+000 5.000000e+001
         vertex 1.974880e+001 2.812500e+000 5.000000e+001
         vertex 1.933022e+001 3.311333e+000 5.000000e+001
      endloop
   endfacet
   facet normal 0.000000e+000 0.000000e+000 1.000000e+000
      outer loop
         vertex 1.933022e+001 3.311333e+000 5.000000e+001
         vertex 1.974880e+001 2.812500e+000 5.000000e+001
         vertex 1.956133e+001 3.080227e+000 5.000000e+001
      endloop
   endfacet
   facet normal 0.000000e+000 0.000000e+000 1.000000e+000
      outer loop
         vertex 1.549410e+000 3.721514e+000 5.000000e+001
         vertex 1.233712e+000 3.636924e+000 5.000000e+001
         vertex 0.000000e+000 1.875000e+000 5.000000e+001
      endloop
   endfacet
   facet normal 0.000000e+000 0.000000e+000 1.000000e+000
      outer loop
         vertex 0.000000e+000 1.875000e+000 5.000000e+001
         vertex 1.233712e+000 3.636924e+000 5.000000e+001
         vertex 9.375001e-001 3.498798e+000 5.000000e+001
      endloop
   endfacet
   facet normal 0.000000e+000 0.000000e+000 1.000000e+000
      outer loop
         vertex 0.000000e+000 1.875000e+000 5.000000e+001
         vertex 9.375001e-001 3.498798e+000 5.000000e+001
         vertex 2.848543e-002 2.200590e+000 5.000000e+001
      endloop
   endfacet
   facet normal 0.000000e+000 0.000000e+000 1.000000e+000
      outer loop
         vertex 2.848543e-002 2.200590e+000 5.000000e+001
         vertex 9.375001e-001 3.498798e+000 5.000000e+001
         vertex 6.697727e-001 3.311333e+000 5.000000e+001
      endloop
   endfacet
   facet normal 0.000000e+000 0.000000e+000 1.000000e+000
      outer loop
         vertex 6.697727e-001 3.311333e+000 5.000000e+001
         vertex 4.386669e-001 3.080227e+000 5.000000e+001
         vertex 2.848543e-002 2.200590e+000 5.000000e+001
      endloop
   endfacet
   facet normal 0.000000e+000 0.000000e+000 1.000000e+000
      outer loop
         vertex 2.848543e-002 2.200590e+000 5.000000e+001
         vertex 4.386669e-001 3.080227e+000 5.000000e+001
         vertex 2.512019e-001 2.812500e+000 5.000000e+001
      endloop
   endfacet
   facet normal 0.000000e+000 0.000000e+000 1.000000e+000
      outer loop
         vertex 2.848543e-002 2.200590e+000 5.000000e+001
         vertex 2.512019e-001 2.812500e+000 5.000000e+001
         vertex 1.130765e-001 2.516288e+000 5.000000e+001
      endloop
   endfacet
   facet normal 0.000000e+000 0.000000e+000 1.000000e+000
      outer loop
         vertex 1.906250e+001 3.498798e+000 5.000000e+001
         vertex 1.876629e+001 3.636924e+000 5.000000e+001
         vertex 1.974880e+001 2.812500e+000 5.000000e+001
      endloop
   endfacet
   facet normal 0.000000e+000 0.000000e+000 1.000000e+000
      outer loop
         vertex 1.974880e+001 2.812500e+000 5.000000e+001
         vertex 1.876629e+001 3.636924e+000 5.000000e+001
         vertex 1.845059e+001 3.721514e+000 5.000000e+001
      endloop
   endfacet
   facet normal 0.000000e+000 0.000000e+000 1.000000e+000
      outer loop
         vertex 1.974880e+001 2.812500e+000 5.000000e+001
         vertex 1.845059e+001 3.721514e+000 5.000000e+001
         vertex 1.812500e+001 3.750000e+000 5.000000e+001
      endloop
   endfacet
   facet normal 0.000000e+000 1.000000e+000 0.000000e+000
      outer loop
         vertex 1.875000e+000 3.750000e+000 5.000000e+001
         vertex 1.812500e+001 3.750000e+000 5.000000e+001
         vertex 1.875000e+000 3.750000e+000 0.000000e+000
      endloop
   endfacet
   facet normal 0.000000e+000 1.000000e+000 0.000000e+000
      outer loop
         vertex 1.875000e+000 3.750000e+000 0.000000e+000
         vertex 1.812500e+001 3.750000e+000 5.000000e+001
         vertex 1.812500e+001 3.750000e+000 0.000000e+000
      endloop
   endfacet
   facet normal 0.000000e+000 -1.000000e+000 0.000000e+000
      outer loop
         vertex 0.000000e+000 0.000000e+000 5.000000e+001
         vertex 0.000000e+000 0.000000e+000 0.000000e+000
         vertex 2.000000e+001 0.000000e+000 5.000000e+001
      endloop
   endfacet
   facet normal 0.000000e+000 -1.000000e+000 0.000000e+000
      outer loop
         vertex 2.000000e+001 0.000000e+000 5.000000e+001
         vertex 0.000000e+000 0.000000e+000 0.000000e+000
         vertex 2.000000e+001 0.000000e+000 0.000000e+000
      endloop
   endfacet
   facet normal -5.807913e-002 9.983119e-001 8.060099e-018
      outer loop
         vertex 1.875000e+000 3.750000e+000 5.000000e+001
         vertex 1.875000e+000 3.750000e+000 0.000000e+000
         vertex 1.549410e+000 3.721514e+000 0.000000e+000
      endloop
   endfacet
   facet normal -1.161583e-001 9.932307e-001 1.612020e-017
      outer loop
         vertex 1.875000e+000 3.750000e+000 5.000000e+001
         vertex 1.549410e+000 3.721514e+000 0.000000e+000
         vertex 1.549410e+000 3.721514e+000 5.000000e+001
      endloop
   endfacet
   facet normal -2.305519e-001 9.730600e-001 3.199550e-017
      outer loop
         vertex 1.549410e+000 3.721514e+000 5.000000e+001
         vertex 1.549410e+000 3.721514e+000 0.000000e+000
         vertex 1.233712e+000 3.636924e+000 0.000000e+000
      endloop
   endfacet
   facet normal -2.868663e-001 9.579706e-001 3.981070e-017
      outer loop
         vertex 1.549410e+000 3.721514e+000 5.000000e+001
         vertex 1.233712e+000 3.636924e+000 0.000000e+000
         vertex 1.233712e+000 3.636924e+000 5.000000e+001
      endloop
   endfacet
   facet normal -3.960194e-001 9.182422e-001 5.495872e-017
      outer loop
         vertex 1.233712e+000 3.636924e+000 5.000000e+001
         vertex 1.233712e+000 3.636924e+000 0.000000e+000
         vertex 9.375001e-001 3.498798e+000 0.000000e+000
      endloop
   endfacet
   facet normal -4.488580e-001 8.936031e-001 6.229156e-017
      outer loop
         vertex 1.233712e+000 3.636924e+000 5.000000e+001
         vertex 9.375001e-001 3.498798e+000 0.000000e+000
         vertex 9.375001e-001 3.498798e+000 5.000000e+001
      endloop
   endfacet
   facet normal -5.494540e-001 8.355240e-001 7.625206e-017
      outer loop
         vertex 9.375001e-001 3.498798e+000 5.000000e+001
         vertex 9.375001e-001 3.498798e+000 0.000000e+000
         vertex 6.697727e-001 3.311333e+000 0.000000e+000
      endloop
   endfacet
   facet normal -5.972114e-001 8.020838e-001 8.287972e-017
      outer loop
         vertex 9.375001e-001 3.498798e+000 5.000000e+001
         vertex 6.697727e-001 3.311333e+000 0.000000e+000
         vertex 6.697727e-001 3.311333e+000 5.000000e+001
      endloop
   endfacet
   facet normal -6.861938e-001 7.274188e-001 9.522851e-017
      outer loop
         vertex 6.697727e-001 3.311333e+000 5.000000e+001
         vertex 6.697727e-001 3.311333e+000 0.000000e+000
         vertex 4.386669e-001 3.080227e+000 0.000000e+000
      endloop
   endfacet
   facet normal -7.274188e-001 6.861938e-001 1.009496e-016
      outer loop
         vertex 6.697727e-001 3.311333e+000 5.000000e+001
         vertex 4.386669e-001 3.080227e+000 0.000000e+000
         vertex 4.386669e-001 3.080227e+000 5.000000e+001
      endloop
   endfacet
   facet normal -8.020838e-001 5.972114e-001 1.113115e-016
      outer loop
         vertex 4.386669e-001 3.080227e+000 5.000000e+001
         vertex 4.386669e-001 3.080227e+000 0.000000e+000
         vertex 2.512019e-001 2.812500e+000 0.000000e+000
      endloop
   endfacet
   facet normal -8.355240e-001 5.494540e-001 1.159522e-016
      outer loop
         vertex 4.386669e-001 3.080227e+000 5.000000e+001
         vertex 2.512019e-001 2.812500e+000 0.000000e+000
         vertex 2.512019e-001 2.812500e+000 5.000000e+001
      endloop
   endfacet
   facet normal -8.936031e-001 4.488580e-001 1.240123e-016
      outer loop
         vertex 2.512019e-001 2.812500e+000 5.000000e+001
         vertex 2.512019e-001 2.812500e+000 0.000000e+000
         vertex 1.130765e-001 2.516288e+000 0.000000e+000
      endloop
   endfacet
   facet normal -9.182422e-001 3.960194e-001 1.274317e-016
      outer loop
         vertex 2.512019e-001 2.812500e+000 5.000000e+001
         vertex 1.130765e-001 2.516288e+000 0.000000e+000
         vertex 1.130765e-001 2.516288e+000 5.000000e+001
      endloop
   endfacet
   facet normal -9.579706e-001 2.868663e-001 1.329451e-016
      outer loop
         vertex 1.130765e-001 2.516288e+000 5.000000e+001
         vertex 1.130765e-001 2.516288e+000 0.000000e+000
         vertex 2.848543e-002 2.200590e+000 0.000000e+000
      endloop
   endfacet
   facet normal -9.730600e-001 2.305519e-001 1.350392e-016
      outer loop
         vertex 1.130765e-001 2.516288e+000 5.000000e+001
         vertex 2.848543e-002 2.200590e+000 0.000000e+000
         vertex 2.848543e-002 2.200590e+000 5.000000e+001
      endloop
   endfacet
   facet normal -9.932307e-001 1.161583e-001 1.378385e-016
      outer loop
         vertex 2.848543e-002 2.200590e+000 5.000000e+001
         vertex 2.848543e-002 2.200590e+000 0.000000e+000
         vertex 0.000000e+000 1.875000e+000 0.000000e+000
      endloop
   endfacet
   facet normal -9.983119e-001 5.807913e-002 1.385436e-016
      outer loop
         vertex 2.848543e-002 2.200590e+000 5.000000e+001
         vertex 0.000000e+000 1.875000e+000 0.000000e+000
         vertex 0.000000e+000 1.875000e+000 5.000000e+001
      endloop
   endfacet
   facet normal 5.807913e-002 9.983119e-001 -8.060099e-018
      outer loop
         vertex 1.812500e+001 3.750000e+000 0.000000e+000
         vertex 1.812500e+001 3.750000e+000 5.000000e+001
         vertex 1.845059e+001 3.721514e+000 5.000000e+001
      endloop
   endfacet
   facet normal 1.161583e-001 9.932307e-001 -1.612020e-017
      outer loop
         vertex 1.812500e+001 3.750000e+000 0.000000e+000
         vertex 1.845059e+001 3.721514e+000 5.000000e+001
         vertex 1.845059e+001 3.721514e+000 0.000000e+000
      endloop
   endfacet
   facet normal 2.305519e-001 9.730600e-001 -3.199550e-017
      outer loop
         vertex 1.845059e+001 3.721514e+000 0.000000e+000
         vertex 1.845059e+001 3.721514e+000 5.000000e+001
         vertex 1.876629e+001 3.636924e+000 5.000000e+001
      endloop
   endfacet
   facet normal 2.868663e-001 9.579706e-001 -3.981070e-017
      outer loop
         vertex 1.845059e+001 3.721514e+000 0.000000e+000
         vertex 1.876629e+001 3.636924e+000 5.000000e+001
         vertex 1.876629e+001 3.636924e+000 0.000000e+000
      endloop
   endfacet
   facet normal 3.960194e-001 9.182422e-001 -5.495872e-017
      outer loop
         vertex 1.876629e+001 3.636924e+000 0.000000e+000
         vertex 1.876629e+001 3.636924e+000 5.000000e+001
         vertex 1.906250e+001 3.498798e+000 5.000000e+001
      endloop
   endfacet
   facet normal 4.488580e-001 8.936031e-001 -6.229156e-017
      outer loop
         vertex 1.876629e+001 3.636924e+000 0.000000e+000
         vertex 1.906250e+001 3.498798e+000 5.000000e+001
         vertex 1.906250e+001 3.498798e+000 0.000000e+000
      endloop
   endfacet
   facet normal 5.494540e-001 8.355240e-001 -7.625206e-017
      outer loop
         vertex 1.906250e+001 3.498798e+000 0.000000e+000
         vertex 1.906250e+001 3.498798e+000 5.000000e+001
         vertex 1.933022e+001 3.311333e+000 5.000000e+001
      endloop
   endfacet
   facet normal 5.972114e-001 8.020838e-001 -8.287972e-017
      outer loop
         vertex 1.906250e+001 3.498798e+000 0.000000e+000
         vertex 1.933022e+001 3.311333e+000 5.000000e+001
         vertex 1.933022e+001 3.311333e+000 0.000000e+000
      endloop
   endfacet
   facet normal 6.861938e-001 7.274188e-001 -9.522851e-017
      outer loop
         vertex 1.933022e+001 3.311333e+000 0.000000e+000
         vertex 1.933022e+001 3.311333e+000 5.000000e+001
         vertex 1.956133e+001 3.080227e+000 5.000000e+001
      endloop
   endfacet
   facet normal 7.274188e-001 6.861938e-001 -1.009496e-016
      outer loop
         vertex 1.933022e+001 3.311333e+000 0.000000e+000
         vertex 1.956133e+001 3.080227e+000 5.000000e+001
         vertex 1.956133e+001 3.080227e+000 0.000000e+000
      endloop
   endfacet
   facet normal 8.020838e-001 5.972114e-001 -1.113115e-016
      outer loop
         vertex 1.956133e+001 3.080227e+000 0.000000e+000
         vertex 1.956133e+001 3.080227e+000 5.000000e+001
         vertex 1.974880e+001 2.812500e+000 5.000000e+001
      endloop
   endfacet
   facet normal 8.355240e-001 5.494540e-001 -1.159522e-016
      outer loop
         vertex 1.956133e+001 3.080227e+000 0.000000e+000
         vertex 1.974880e+001 2.812500e+000 5.000000e+001
         vertex 1.974880e+001 2.812500e+000 0.000000e+000
      endloop
   endfacet
   facet normal 8.936031e-001 4.488580e-001 -1.240123e-016
      outer loop
         vertex 1.974880e+001 2.812500e+000 0.000000e+000
         vertex 1.974880e+001 2.812500e+000 5.000000e+001
         vertex 1.988692e+001 2.516288e+000 5.000000e+001
      endloop
   endfacet
   facet normal 9.182422e-001 3.960194e-001 -1.274317e-016
      outer loop
         vertex 1.974880e+001 2.812500e+000 0.000000e+000
         vertex 1.988692e+001 2.516288e+000 5.000000e+001
         vertex 1.988692e+001 2.516288e+000 0.000000e+000
      endloop
   endfacet
   facet normal 9.579706e-001 2.868663e-001 -1.329451e-016
      outer loop
         vertex 1.988692e+001 2.516288e+000 0.000000e+000
         vertex 1.988692e+001 2.516288e+000 5.000000e+001
         vertex 1.997151e+001 2.200590e+000 5.000000e+001
      endloop
   endfacet
   facet normal 9.730600e-001 2.305519e-001 -1.350392e-016
      outer loop
         vertex 1.988692e+001 2.516288e+000 0.000000e+000
         vertex 1.997151e+001 2.200590e+000 5.000000e+001
         vertex 1.997151e+001 2.200590e+000 0.000000e+000
      endloop
   endfacet
   facet normal 9.932307e-001 1.161583e-001 -1.378385e-016
      outer loop
         vertex 1.997151e+001 2.200590e+000 0.000000e+000
         vertex 1.997151e+001 2.200590e+000 5.000000e+001
         vertex 2.000000e+001 1.875000e+000 5.000000e+001
      endloop
   endfacet
   facet normal 9.983119e-001 5.807913e-002 -1.385436e-016
      outer loop
         vertex 1.997151e+001 2.200590e+000 0.000000e+000
         vertex 2.000000e+001 1.875000e+000 5.000000e+001
         vertex 2.000000e+001 1.875000e+000 0.000000e+000
      endloop
   endfacet
endsolid